<?xml version="1.0" encoding="utf-8"?>
<!-- Generator: Adobe Illustrator 24.0.2, SVG Export Plug-In . SVG Version: 6.00 Build 0)  -->
<svg version="1.1" id="Capa_1" xmlns="http://www.w3.org/2000/svg" xmlns:xlink="http://www.w3.org/1999/xlink" x="0px" y="0px"
	 viewBox="0 0 1378.24 373.65" style="enable-background:new 0 0 1378.24 373.65;" xml:space="preserve">
<style type="text/css">
	.st0{fill-rule:evenodd;clip-rule:evenodd;fill:#147979;}
	.st1{fill:#FFFFFF;}
	.st2{fill:#002155;}
	.st3{fill:#163865;}
	.st4{fill:#224972;}
	.st5{fill:#2C5780;}
	.st6{fill:#36668D;}
	.st7{fill:#3F769F;}
	.st8{fill:#4886B2;}
	.st9{fill:#5297C4;}
	.st10{fill:#403F3F;}
	.st11{fill:#969696;}
	.st12{fill:#0D0C0D;}
</style>
<g id="DIETZEN_126_">
	<path class="st0" d="M999.3,55.75c119.68,24.34,162.06,41.87,225.29,80.57c45.84,42.08,116.34,62.98,119.91,66.54
		c-34.95,162.05-654.15,141.96-682.5,124.4c98.63,6.92,228.67-7.39,299.11-21.54c186.48-35.61,200.34-155.25,84.07-197.38
		c-147.87-62.93-415.34-55.46-619.3-37.49c182.88-39.14,309.61-32.24,401.1-32.41C911.35,41.87,946.6,45.34,999.3,55.75L999.3,55.75
		z"/>
	<path class="st0" d="M125.13,232.68l0.68,0c12.06-0.02,21.52-3.6,28.44-10.92c6.76-7.28,10.14-17.13,10.12-29.64
		c-0.02-9.19-2.41-16.46-7.31-21.69c-4.93-5.41-11.56-8.11-20.01-8.09l-1.03,0L125.13,232.68z M62.56,285.65l27.26-176.08
		l40.68-0.07c12.54-0.02,23.03,0.63,31.51,2.15c8.48,1.34,15.44,3.51,20.86,6.56c11.84,6.75,20.86,16.25,27.17,28.25
		c6.26,12.03,9.35,25.93,9.38,41.68c0.03,14.7-2.66,28.78-8.05,41.65c-5.57,12.91-13.18,23.76-23.01,32.4
		c-9.27,8.35-20.12,14.11-32.31,17.84c-12.18,3.76-27.61,5.5-46.25,5.53L62.56,285.65z M226.86,285.36l27.49-176.08l55.21-0.1
		L282.1,285.26L226.86,285.36z M310.91,285.2l27.3-176.08l102.96-0.19l-7.35,47.77l-48.79,0.09l-2.8,16.97l46.01-0.08l-6.81,44.53
		l-45.94,0.08l-3.01,19l53.34-0.1l-7.35,47.8L310.91,285.2z M460.51,284.93l19.08-122.71l-32.21,0.06l8.58-53.37l118.06-0.21
		l-8.37,53.37l-30.99,0.06l-19.29,122.71L460.51,284.93z M550.46,284.77l76.51-124.14l-52.68,0.09l8.06-52.05l137.86-0.25
		l-76.32,122.63l48.25-0.09l-8.35,53.55L550.46,284.77z M701.72,284.5l27.29-176.08l103-0.19l-7.36,47.77l-48.79,0.09l-2.86,16.97
		l46.08-0.08l-6.84,44.53l-45.94,0.08l-3,19l53.36-0.1l-7.36,47.8L701.72,284.5z M831.51,284.27l27.27-176.08l55.06-0.1l17.42,55.86
		c0.3,0.85,0.65,2.24,1.19,4.09c3.88,12.18,6.64,22.69,7.98,31.67l14.41-91.69l54.39-0.1l-27.45,176.08l-54.92,0.1l-27.96-90.91
		c-0.31,8.27-1.79,21.65-4.46,40.29l-0.35,1.38l-7.51,49.31L831.51,284.27z"/>
</g>
</svg>
